<svg width="22" height="21" fill="none" xmlns="http://www.w3.org/2000/svg"><path fill-rule="evenodd" clip-rule="evenodd" d="M.24 4.82c0-1.026.438-2.01 1.218-2.736A4.324 4.324 0 0 1 4.4.951h12.48c1.103 0 2.161.407 2.942 1.133.78.726 1.218 1.71 1.218 2.736v11.606c0 1.026-.438 2.01-1.218 2.736a4.325 4.325 0 0 1-2.942 1.133H4.4a4.324 4.324 0 0 1-2.942-1.133C.678 18.436.24 17.452.24 16.426V4.82ZM4.4 2.885c-.552 0-1.08.204-1.47.567a1.87 1.87 0 0 0-.61 1.368v11.606c0 .513.22 1.005.61 1.368.39.363.918.567 1.47.567h6.24v-6.77H9.6c-.276 0-.54-.103-.735-.284a.934.934 0 0 1-.305-.684c0-.257.11-.503.305-.684.195-.181.46-.283.735-.283h1.04V8.205a3.27 3.27 0 0 1 1.066-2.394 3.784 3.784 0 0 1 2.574-.991h.624c.276 0 .54.102.735.283a.934.934 0 0 1 .305.684c0 .256-.11.502-.305.684-.195.181-.46.283-.735.283h-.624a1.68 1.68 0 0 0-.597.11c-.19.073-.361.18-.506.315-.145.135-.26.295-.338.47a1.363 1.363 0 0 0-.119.556v1.45h2.184c.276 0 .54.103.735.284a.934.934 0 0 1 .305.684c0 .257-.11.503-.305.684-.195.181-.46.283-.735.283H12.72v6.77h4.16c.552 0 1.08-.203 1.47-.566.39-.363.61-.855.61-1.368V4.82a1.87 1.87 0 0 0-.61-1.368 2.162 2.162 0 0 0-1.47-.567H4.4Z" fill="#000"/></svg>
