<svg width="26" height="24" fill="none" xmlns="http://www.w3.org/2000/svg"><path fill-rule="evenodd" clip-rule="evenodd" d="M15.371 2.918c.437 0 .862.128 1.216.365.354.238.62.573.757.958l.565 1.579h2.371c.828 0 1.621.305 2.206.85.585.544.914 1.282.914 2.051v7.738c0 .77-.329 1.508-.914 2.052a3.243 3.243 0 0 1-2.206.85H5.72a3.243 3.243 0 0 1-2.206-.85 2.803 2.803 0 0 1-.914-2.052V8.721a2.8 2.8 0 0 1 .914-2.051 3.243 3.243 0 0 1 2.206-.85h2.371l.565-1.579a1.95 1.95 0 0 1 .757-.958c.354-.237.78-.365 1.217-.365h4.74Zm0 1.934H10.63l-.565 1.579a1.95 1.95 0 0 1-.757.958c-.354.237-.78.365-1.217.365H5.72c-.276 0-.54.102-.735.283a.934.934 0 0 0-.305.684v7.738c0 .256.11.503.305.684.195.181.46.283.735.283h14.56c.276 0 .54-.102.735-.283a.934.934 0 0 0 .305-.684V8.721a.934.934 0 0 0-.305-.684 1.081 1.081 0 0 0-.735-.283h-2.371c-.437 0-.862-.128-1.216-.365a1.95 1.95 0 0 1-.757-.958l-.565-1.579ZM10.4 12.107c0-.642.274-1.257.761-1.71A2.703 2.703 0 0 1 13 9.689c.69 0 1.35.254 1.838.708.488.453.762 1.068.762 1.71a2.34 2.34 0 0 1-.761 1.71 2.703 2.703 0 0 1-1.839.708 2.7 2.7 0 0 1-1.838-.709 2.335 2.335 0 0 1-.762-1.71ZM13 7.754c-1.241 0-2.432.459-3.31 1.275-.877.816-1.37 1.923-1.37 3.078 0 1.154.493 2.261 1.37 3.077.878.816 2.069 1.275 3.31 1.275s2.432-.459 3.31-1.275c.877-.816 1.37-1.923 1.37-3.077 0-1.155-.493-2.262-1.37-3.078-.878-.816-2.069-1.275-3.31-1.275Z" fill="#000"/></svg>
