<svg width="23" height="18" fill="none" xmlns="http://www.w3.org/2000/svg"><path fill-rule="evenodd" clip-rule="evenodd" d="M14.251 2.853c-.475 0-.944.097-1.373.286-.43.19-.809.465-1.11.806a2.912 2.912 0 0 0-.632 1.17 2.783 2.783 0 0 0-.033 1.31.902.902 0 0 1-.019.452.951.951 0 0 1-.239.395c-.111.112-.25.198-.405.25-.155.053-.32.07-.484.052-2.236-.256-4.344-1.11-6.067-2.461.032.582.25 1.201.72 1.85l.707.97-1.16.46-.223.089c.166.177.366.358.59.537.298.238.614.456.946.653l.011.007h.001l1.61.908-1.685.784a3.436 3.436 0 0 1-.25.104c.363.28.762.516 1.188.703l1.446.635-1.21.971c-.661.53-1.326.926-2.188 1.135a9.65 9.65 0 0 0 4.296.993c4.999 0 9.024-3.71 9.024-8.254v-.503l.442-.29c.69-.45 1.178-1.06 1.527-1.757h-2.246l-.283-.551a3.064 3.064 0 0 0-1.185-1.243 3.389 3.389 0 0 0-1.715-.461Zm-11.73 7.06a.95.95 0 0 0-.214.36.902.902 0 0 0-.033.411c.117.775.615 1.442 1.167 1.952.15.138.31.27.478.398l-.078.019c-.5.116-1.175.14-2.3.038a1.106 1.106 0 0 0-.611.12 1 1 0 0 0-.428.425.907.907 0 0 0-.088.575.945.945 0 0 0 .282.519c1.04.99 2.284 1.775 3.657 2.31 1.372.535 2.846.81 4.334.806 5.942 0 10.815-4.29 11.091-9.705 1.342-1.047 2.012-2.466 2.374-3.755a.903.903 0 0 0 .013-.438.937.937 0 0 0-.196-.398 1.028 1.028 0 0 0-.365-.277 1.105 1.105 0 0 0-.458-.1h-2.448a5.224 5.224 0 0 0-2.5-1.91 5.664 5.664 0 0 0-3.23-.198 5.36 5.36 0 0 0-2.75 1.59A4.744 4.744 0 0 0 8.98 5.436c-1.917-.464-3.633-1.47-4.91-2.877a1.042 1.042 0 0 0-.422-.279 1.113 1.113 0 0 0-.993.127.984.984 0 0 0-.325.374c-.63 1.279-.751 2.753-.048 4.252l-.243.097a1.01 1.01 0 0 0-.531.472.905.905 0 0 0-.062.682c.193.63.628 1.187 1.073 1.63h.001Z" fill="#000"/></svg>
